<?xml version="1.0" encoding="utf-8"?>
<!-- Generator: Adobe Illustrator 24.0.0, SVG Export Plug-In . SVG Version: 6.00 Build 0)  -->
<svg version="1.1" id="Layer_1" xmlns="http://www.w3.org/2000/svg" xmlns:xlink="http://www.w3.org/1999/xlink" x="0px" y="0px"
	 viewBox="0 0 249 381" style="enable-background:new 0 0 249 381;" xml:space="preserve">
<style type="text/css">
	.st0{fill:#FFFFFF;}
</style>
<g>
	<path class="st0" d="M71.63,375.24c-7.09-2.12-13.85-5.27-16.92-12.29c-2.41-5.49-3.67-11.64-4.54-17.63
		c-6.63-45.78-13.03-91.59-19.51-137.39c-2.4-17.01-4.81-34.02-7.2-51.04c-0.1-0.68-0.01-1.39-0.01-2.25c67.79,0,135.45,0,203.6,0
		c-0.92,6.73-1.78,13.23-2.7,19.73c-4.25,30.1-8.51,60.2-12.76,90.29c-4.14,29.27-8.24,58.53-12.41,87.8
		c-1.63,11.46-7.68,19.19-19.17,22.18c-0.31,0.08-0.56,0.4-0.84,0.61C143.32,375.24,107.48,375.24,71.63,375.24z"/>
	<path class="st0" d="M6.96,133.92c0-17.83,0-35.23,0-52.97c35.5,0,70.79,0,106.45,0c0-17.48,0-34.62,0-51.91
		c32.11-7.79,63.92-15.51,96.12-23.32c2.05,7.8,4.05,15.39,6.12,23.29c-26.05,6.45-51.65,12.8-77.41,19.18c0,10.81,0,21.46,0,32.59
		c35.34,0,70.72,0,106.31,0c0,17.97,0,35.45,0,53.13C165.3,133.92,86.24,133.92,6.96,133.92z"/>
</g>
</svg>
