<?xml version="1.0" encoding="utf-8"?>
<!-- Generator: Adobe Illustrator 24.0.0, SVG Export Plug-In . SVG Version: 6.00 Build 0)  -->
<svg version="1.1" id="Layer_1" xmlns="http://www.w3.org/2000/svg" xmlns:xlink="http://www.w3.org/1999/xlink" x="0px" y="0px"
	 viewBox="0 0 235.86 175.06" style="enable-background:new 0 0 235.86 175.06;" xml:space="preserve">
<style type="text/css">
	.st0{fill:#FFFFFF;}
</style>
<g>
	<path class="st0" d="M0,135.42C0,106.71,0,78,0,49.28c2.49-4.91,5.61-6.81,9.65-5.89c4.13,0.94,6.12,4.11,6.12,9.75
		c0,5.83,0,11.67,0,17.5c0,0.89,0,1.78,0,2.76c4.9,0,9.47,0,14.25,0c0-0.97,0-1.8,0-2.63c0-4.91-0.06-9.83,0.02-14.74
		c0.08-5.24,3.3-8.41,8.54-8.53c1.38-0.03,2.76-0.01,4.15-0.01c3.5,0,7,0,10.69,0c0-4.89-0.01-9.48,0-14.07
		c0.01-6.22,2.93-9.16,9.16-9.18c8.83-0.02,17.66-0.01,26.49-0.01c0.82,0,1.65,0,2.74,0c0-2.16,0.01-4.07,0-5.97
		c-0.01-0.75-0.07-1.49-0.11-2.49c-2.07,0-3.97,0.03-5.87-0.01c-5.04-0.1-8.42-3.23-8.45-7.79c-0.03-4.62,3.48-7.97,8.53-7.98
		c16.58-0.03,33.17-0.03,49.75,0c4.91,0.01,8.45,3.32,8.51,7.8c0.06,4.51-3.38,7.83-8.31,7.96c-1.97,0.05-3.95,0.01-6.07,0.01
		c0,2.91,0,5.55,0,8.46c0.97,0,1.79,0,2.61,0c6.99,0,13.97-0.04,20.96,0.01c5.73,0.04,8.76,3.14,8.78,8.89
		c0.02,8.52,0.01,17.04,0.01,25.56c0,0.82,0,1.65,0,2.72c5.13,0,10.03-0.06,14.92,0.02c5.62,0.09,8.62,3.18,8.66,8.78
		c0.03,3.75,0.01,7.49,0.01,11.4c2.69,0,5.17,0,7.83,0c0-3.98-0.05-7.81,0.02-11.64c0.06-3.3,1.36-6.01,4.42-7.52
		c3.04-1.49,5.97-1,8.64,1.02c8.63,6.53,17.25,13.07,25.86,19.62c2.22,1.69,3.35,3.95,3.35,6.75c0,18.12,0.08,36.24-0.11,54.35
		c-0.02,2-1.06,4.57-2.52,5.87c-8.8,7.89-17.81,15.54-26.87,23.14c-3.16,2.65-7.46,2.28-10.29-0.46c-1.96-1.9-2.52-4.31-2.52-6.93
		c0-3.03,0-6.06,0-9.05c-2.8,0-5.22,0-7.83,0c0,2.99,0,5.81,0,8.64c-0.01,6.68-2.88,9.58-9.49,9.58c-27.56,0-55.12-0.03-82.68,0.04
		c-3.77,0.01-6.56-1.29-8.92-4.24c-8.48-10.61-17.12-21.1-25.64-31.68c-0.87-1.08-1.76-1.44-3.1-1.43
		c-5.53,0.07-11.05,0.03-16.58,0.03c-6.24-0.01-9.27-3.06-9.28-9.36c-0.01-4.91,0-9.83,0-14.74c0-0.72,0-1.45,0-2.07
		c-4.97,0-9.53,0-14.25,0c0,1.11,0,2.02,0,2.93c-0.01,6.53,0.09,13.05-0.07,19.58c-0.13,5.2-5.07,8.65-10.02,7.23
		C2.67,140.44,1.1,138.15,0,135.42z"/>
</g>
</svg>
