<?xml version="1.0" encoding="utf-8"?>
<!-- Generator: Adobe Illustrator 24.0.0, SVG Export Plug-In . SVG Version: 6.00 Build 0)  -->
<svg version="1.1" id="Layer_1" xmlns="http://www.w3.org/2000/svg" xmlns:xlink="http://www.w3.org/1999/xlink" x="0px" y="0px"
	 viewBox="0 0 428 422" style="enable-background:new 0 0 428 422;" xml:space="preserve">
<style type="text/css">
	.st0{fill:#FFFFFF;}
</style>
<g>
	<path class="st0" d="M342.85,416.6c-97.71,0-195.42,0-293.12,0c-3.88-1.77-6.61-4.35-6.58-9.01c0.07-8.91-0.22-17.84,0.2-26.74
		c0.61-12.86,6.86-22.55,18.32-28.34c4.62-2.33,9.94-3.29,15.42-5.02c0-1.16,0-2.87,0-4.58c0-99-0.01-198.01,0.05-297.01
		c0-4.09,0.18-8.32,1.23-12.24c4.33-16.19,17.04-25.88,33.99-25.9c56.03-0.08,112.06-0.12,168.09,0.12
		c5.29,0.02,11.01,1.2,15.76,3.46c13.48,6.39,19.47,17.83,19.47,32.56c0.01,71.46,0,142.92,0,214.37c0,1.55,0,3.11,0,5
		c1.86,0,3.29,0,4.72,0c19.34,0.02,29.4,10.15,29.42,29.62c0.01,4.65-0.1,9.32,0.22,13.96c0.29,4.1,3.6,7.06,7.62,7.43
		c3.83,0.35,7.61-2.26,8.61-6.25c0.45-1.77,0.5-3.68,0.5-5.53c0.03-45.64,0.02-91.29,0.02-136.93c0-1.44,0-2.87,0-4.34
		c-1.55-0.23-2.72-0.46-3.89-0.57c-15.85-1.53-29.15-15.19-29.79-30.89c-0.38-9.16-0.63-18.36-0.24-27.51
		c0.12-2.84,1.95-6.1,3.97-8.27c6.69-7.21,13.78-14.07,20.82-20.95c1.87-1.82,4.11-3.26,6.36-5.02
		c-8.24-8.22-15.42-15.33-22.54-22.5c-2.52-2.54-5.14-5.05-7.27-7.91c-2.3-3.09-1.6-7.53,1.05-10.23c2.65-2.69,7.01-3.29,10.24-1.23
		c1.44,0.92,2.73,2.11,3.95,3.33c9.63,9.57,19.09,19.31,28.89,28.7c3.96,3.8,5.54,7.91,5.53,13.39
		c-0.13,76.78-0.09,153.56-0.1,230.34c0,2.13-0.05,4.26-0.2,6.38c-0.9,12.62-11.83,22.74-24.8,22.99
		c-13.01,0.26-24.36-9.33-25.56-22.04c-0.6-6.34-0.38-12.75-0.56-19.13c-0.18-6.4-3.15-9.5-9.52-9.84
		c-2.35-0.12-4.71-0.02-7.17-0.02c0,22.99,0,45.52,0,68.15c0.91,0.12,1.55,0.25,2.2,0.29c16.1,0.88,30.39,14.46,31.19,30.82
		c0.43,8.76,0.29,17.55,0.49,26.32C349.97,411.06,347.97,414.82,342.85,416.6z M196.15,161.15c24.88,0,49.75,0.01,74.63-0.01
		c7.73-0.01,10.75-2.9,10.76-10.49c0.03-32.72,0.03-65.44,0-98.16c-0.01-7.66-2.96-10.62-10.62-10.62
		c-49.62-0.02-99.24-0.02-148.85,0c-7.89,0-10.83,2.99-10.84,10.88c-0.01,32.45-0.01,64.91,0,97.36c0,8.11,2.93,11.02,11.09,11.03
		C146.94,161.16,171.55,161.15,196.15,161.15z"/>
</g>
</svg>
