<?xml version="1.0" encoding="utf-8"?>
<!-- Generator: Adobe Illustrator 24.0.0, SVG Export Plug-In . SVG Version: 6.00 Build 0)  -->
<svg version="1.1" id="Layer_1" xmlns="http://www.w3.org/2000/svg" xmlns:xlink="http://www.w3.org/1999/xlink" x="0px" y="0px"
	 viewBox="0 0 256 228" style="enable-background:new 0 0 256 228;" xml:space="preserve">
<style type="text/css">
	.st0{fill:#FFFFFF;}
</style>
<g>
	<path class="st0" d="M7,126.39c0.26-0.56,0.52-1.11,0.76-1.68c1.82-4.21,4.96-6.59,9.58-6.9c0.86-0.06,1.73-0.06,2.6-0.06
		c72.11,0,144.23,0,216.34,0.01c1.57,0,3.19-0.01,4.69,0.36c4.7,1.13,7.96,5.19,8.17,10.09c0.12,2.83,0.1,5.68,0.02,8.51
		c-0.17,6-4.37,10.38-10.35,10.87c-1.02,0.08-2.05,0.05-3.07,0.05c-71.4,0-142.81-0.05-214.21,0.08
		c-6.86,0.01-11.99-1.79-14.53-8.56C7,134.91,7,130.65,7,126.39z"/>
	<path class="st0" d="M128.57,99.74c-32.63,0-65.25,0.02-97.88-0.03c-2.74,0-5.54-0.18-8.2-0.77c-6.42-1.42-10.36-6.08-10.78-12.66
		c-0.73-11.52,2.66-21.91,8.93-31.45c7.49-11.4,17.83-19.71,29.39-26.54c17.14-10.15,35.74-16.47,55.44-19.09
		c27.89-3.7,55.15-0.97,81.4,9.66c16.46,6.67,31.54,15.47,43.37,29.01c9.52,10.89,14.92,23.44,14.31,38.16
		c-0.33,8.14-4.56,12.56-12.69,13.37c-2.19,0.22-4.4,0.32-6.61,0.33C193.03,99.75,160.8,99.74,128.57,99.74z M55.74,66.05
		c-0.1,9.1,5.38,13.08,12.39,10.23c6.82-2.78,12.59-12.09,12-19.37c-0.63-7.78-6.76-11.18-13.58-7.33
		C59.73,53.43,56.39,59.59,55.74,66.05z M200.46,67.47c-0.03-7.89-5.83-16.38-12.81-18.78c-5.78-1.98-10.47,0.84-11.38,6.86
		c-1.12,7.41,3.57,16.35,10.55,20.14C194.07,79.61,200.5,75.73,200.46,67.47z M138.27,62.24c-0.02-4.53-1.43-9.29-3.75-12.34
		c-3.75-4.93-9.03-4.97-12.79-0.08c-5.08,6.6-5.04,19.16,0.09,25.74c3.67,4.71,8.83,4.75,12.49,0.08
		C137.31,71.79,138.12,67.27,138.27,62.24z"/>
	<path class="st0" d="M128.06,164.71c32.72,0,65.43-0.02,98.15,0.03c2.58,0,5.22,0.21,7.72,0.8c6.29,1.49,10.06,6.15,10.57,12.61
		c1.16,14.75-6.27,26.65-20.38,32.99c-10.72,4.81-22.06,7.24-33.64,7.83c-17.94,0.91-35.91,1.27-53.87,1.41
		c-20.34,0.15-40.68-0.02-61.01-0.4c-12.93-0.25-25.81-1.46-38.21-5.57c-8.89-2.94-16.7-7.47-21.56-15.87
		c-4.13-7.12-4.82-14.95-3.93-22.9c0.6-5.3,3.93-8.74,9.13-9.91c2.97-0.67,6.08-0.97,9.12-0.97
		C62.79,164.69,95.43,164.71,128.06,164.71z"/>
</g>
</svg>
