<?xml version="1.0" encoding="utf-8"?>
<!-- Generator: Adobe Illustrator 24.0.0, SVG Export Plug-In . SVG Version: 6.00 Build 0)  -->
<svg version="1.1" id="Layer_1" xmlns="http://www.w3.org/2000/svg" xmlns:xlink="http://www.w3.org/1999/xlink" x="0px" y="0px"
	 viewBox="0 0 402 334" style="enable-background:new 0 0 402 334;" xml:space="preserve">
<style type="text/css">
	.st0{fill:#FFFFFF;}
</style>
<g>
	<path class="st0" d="M392,103.73c0,5.75,0,11.5,0,17.25c-0.36,2.2-0.76,4.39-1.07,6.6c-3.05,21.09-12.38,39.37-25.09,56.13
		c-16.19,21.37-35.79,39.41-56.39,56.3c-29.95,24.56-60.35,48.57-90.55,72.82c-6.3,5.06-12.59,10.15-18.82,15.18
		c-30.86-24.62-61.51-48.91-91.96-73.43c-23.18-18.66-45.96-37.8-65.51-60.41c-13.35-15.43-24.62-32.16-30.25-52.04
		c-1.95-6.91-2.94-14.09-4.37-21.15c0-5.75,0-11.5,0-17.25c0.5-3.07,0.99-6.13,1.5-9.2c9.45-57.28,61.26-91.85,116.27-83.37
		c25.71,3.96,45.84,17.61,62,37.49c4.37,5.38,8.16,11.24,12.39,17.12c1.88-2.87,3.62-5.71,5.53-8.42
		c23.53-33.42,54.73-51.14,96.53-46.72c41.96,4.44,75.35,33.16,86.09,74.04C389.95,90.91,390.79,97.37,392,103.73z"/>
</g>
</svg>
