<?xml version="1.0" encoding="utf-8"?>
<!-- Generator: Adobe Illustrator 24.0.0, SVG Export Plug-In . SVG Version: 6.00 Build 0)  -->
<svg version="1.1" id="Layer_1" xmlns="http://www.w3.org/2000/svg" xmlns:xlink="http://www.w3.org/1999/xlink" x="0px" y="0px"
	 viewBox="0 0 421 361" style="enable-background:new 0 0 421 361;" xml:space="preserve">
<style type="text/css">
	.st0{fill:#FFFFFF;}
</style>
<g>
	<path class="st0" d="M5,82.99c0-2.13,0-4.26,0-6.39c3.11-7.91,9.09-10.43,17.31-10.35c27.54,0.26,55.09,0.13,82.63,0.01
		c1.76-0.01,4.05-0.73,5.18-1.95c10.34-11.21,21.82-21.04,34.58-29.37c0.38-0.25,0.69-0.61,1.75-1.57c-2.35,0-3.76,0-5.17,0
		c-20.09,0-40.18,0.02-60.28-0.03c-2.24-0.01-4.56-0.17-6.7-0.77c-5.45-1.51-9.34-6.96-9.29-12.59c0.04-5.81,4.19-11.29,9.81-12.63
		c1.91-0.46,3.96-0.48,5.95-0.48C133.2,6.86,185.63,6.73,238.05,6.9C289.6,7.07,333.28,25.84,368.03,64
		c35.92,39.44,50.58,86.14,44.2,139.02c-5.7,47.16-28.07,85.45-65.03,114.97c-32.12,25.67-69.16,37.64-110.26,37.57
		c-71.32-0.12-142.64-0.03-213.96-0.04c-1.59,0-3.2-0.01-4.78-0.17c-6.28-0.63-11.16-5.56-11.64-11.69
		c-0.54-6.81,3.35-12.5,9.81-14.02c2.17-0.51,4.48-0.6,6.72-0.6c39.52-0.03,79.04-0.02,118.56-0.02c1.33,0,2.66,0,4.24,0
		c-7.94-6.31-15.42-12.07-22.65-18.11c-2.19-1.83-4.25-2.7-7.12-2.68c-18.1,0.12-36.19,0.07-54.29,0.04c-1.98,0-4.03-0.03-5.92-0.55
		c-6.51-1.78-10.32-7.9-9.39-14.73c0.85-6.24,6.27-11.01,13.15-11.11c11.17-0.15,22.35-0.04,33.53-0.07c1.09,0,2.19-0.16,3.71-0.29
		c-19.56-28.4-30.17-59.25-31.59-93.21c-1.42-33.9,6.71-65.47,23.78-95.47c-2.25,0-3.68,0-5.1,0c-20.49,0-40.99-0.25-61.47,0.12
		C14.31,93.12,8.32,90.76,5,82.99z M239.57,73.07c-59.34-0.38-108.46,48.42-108.27,108.38c0.18,58.99,47.71,107.61,107.97,107.9
		c58.9,0.28,107.96-48.29,108.28-107.2C347.88,122.06,299.76,73.46,239.57,73.07z"/>
	<path class="st0" d="M311.98,143.69c-11.21,3.64-21.9,7.15-32.63,10.5c-0.81,0.25-2.36-0.28-2.9-0.97
		c-5.72-7.3-12.87-12.57-21.57-15.81c-0.91-0.34-2.15-1.5-2.16-2.29c-0.14-11.39-0.1-22.78-0.1-34.52
		C279.21,105.74,298.61,119.94,311.98,143.69z"/>
	<path class="st0" d="M319.99,168.94c4,25.47-5.03,52.99-22.63,69.41c-6.73-9.25-13.46-18.44-20.05-27.73
		c-0.46-0.65-0.21-2.3,0.31-3.07c5.09-7.44,7.59-15.68,8.27-24.6c0.09-1.19,0.89-3.03,1.79-3.34
		C298.31,175.94,309.02,172.52,319.99,168.94z"/>
	<path class="st0" d="M158.95,168.97c10.93,3.57,21.53,6.97,32.06,10.57c0.89,0.31,1.88,1.85,1.94,2.87
		c0.5,9.25,3.19,17.71,8.42,25.39c0.5,0.73,0.52,2.39,0.03,3.09c-6.46,9.09-13.06,18.09-19.62,27.12
		C165.29,224.61,154.1,193.98,158.95,168.97z"/>
	<path class="st0" d="M226.17,100.6c0,11.65,0.05,22.81-0.09,33.96c-0.01,0.96-1.08,2.44-2,2.78c-8.67,3.29-15.9,8.44-21.59,15.78
		c-0.55,0.71-2.07,1.34-2.86,1.1c-10.63-3.34-21.21-6.85-31.79-10.33c-0.23-0.08-0.4-0.33-0.74-0.63
		C180.12,120.07,199.5,105.82,226.17,100.6z"/>
	<path class="st0" d="M276.06,254.18c-24.62,11.48-48.69,11.46-73.28,0.01c6.91-9.52,13.57-18.76,20.37-27.9
		c0.46-0.62,2.12-0.81,3.05-0.55c8.8,2.43,17.56,2.44,26.36,0.01c0.94-0.26,2.61-0.11,3.07,0.5
		C262.44,235.38,269.11,244.62,276.06,254.18z"/>
	<path class="st0" d="M219.55,181.39c-0.1-10.93,8.61-19.93,19.49-20.13c10.98-0.2,20.18,8.72,20.36,19.75
		c0.18,10.87-9.03,20.14-19.99,20.14C228.53,201.14,219.65,192.32,219.55,181.39z"/>
</g>
</svg>
