<?xml version="1.0" encoding="utf-8"?>
<!-- Generator: Adobe Illustrator 24.0.0, SVG Export Plug-In . SVG Version: 6.00 Build 0)  -->
<svg version="1.1" id="Layer_1" xmlns="http://www.w3.org/2000/svg" xmlns:xlink="http://www.w3.org/1999/xlink" x="0px" y="0px"
	 viewBox="0 0 398 400" style="enable-background:new 0 0 398 400;" xml:space="preserve">
<style type="text/css">
	.st0{fill:#FFFFFF;}
</style>
<g>
	<path class="st0" d="M389,120.5c-2.41,3.29-4.44,6.95-7.29,9.81c-35.97,36.14-72.05,72.16-108.1,108.23
		c-0.88,0.88-1.61,1.91-2.07,2.46c-37.89-37.88-75.47-75.46-113.27-113.25c0.14-0.16,0.83-1,1.59-1.76
		c36.67-36.68,73.34-73.35,110.02-110.02c8.47-8.47,17.36-8.5,25.8-0.07c29.08,29.06,58.18,58.12,87.17,87.27
		c2.4,2.42,4.1,5.54,6.13,8.33C389,114.5,389,117.5,389,120.5z"/>
	<path class="st0" d="M108.5,392c-7.62-3.49-12.46-10.23-18.15-15.91c-2.57-2.56-4.5-2.81-7.64-1.31
		c-10.13,4.84-20.39,9.4-30.62,14.03c-8.32,3.76-14.32,2.67-20.76-3.74c-6.29-6.26-12.57-12.53-18.82-18.82
		c-6.46-6.49-7.52-12.3-3.71-20.74c4.87-10.8,9.77-21.6,14.77-32.35c0.86-1.85,0.83-3.04-0.76-4.51c-3.75-3.49-7.33-7.16-10.9-10.84
		c-7.17-7.38-7.12-16.56,0.1-23.94c3.04-3.11,6.09-6.2,8.94-9.1c37.82,37.84,75.34,75.38,113.12,113.18
		c-5.06,4.81-9.35,11.09-16.56,14.06C114.5,392,111.5,392,108.5,392z"/>
	<path class="st0" d="M169.54,380.92c-5.11,0.08-8.99-2.33-12.49-5.84c-30.81-30.87-61.66-61.7-92.5-92.53
		c-13.52-13.52-27.05-27.03-40.56-40.57c-8.13-8.14-8.17-17.17-0.1-25.24c29.33-29.34,58.67-58.68,88.02-88
		c7.95-7.94,17.05-8.03,25-0.09c44.56,44.51,89.1,89.05,133.61,133.61c7.79,7.8,7.69,16.92-0.12,24.74
		c-29.41,29.44-58.86,58.85-88.26,88.3C178.61,378.81,174.64,381.07,169.54,380.92z M151.84,313.9
		c10.02-9.73,20.6-19.43,30.46-29.81c5.33-5.61,4.74-14.52-0.8-20.18c-15.29-15.62-30.75-31.07-46.35-46.37
		c-5.69-5.57-14.94-6.02-20.52-0.7c-10.28,9.8-20.05,20.15-29.83,30.06C107.21,269.3,129.7,291.77,151.84,313.9z"/>
</g>
</svg>
